# AST/ASF file generated using VICON BodyLanguage
# -----------------------------------------------
:version 1.10
:name VICON
:units
  mass 1.0
  length 0.45
  angle deg
:documentation
   .ast/.asf automatically generated from VICON data using
   VICON BodyBuilder and BodyLanguage model FoxedUp or BRILLIANT.MOD
:root
   order TX TY TZ RX RY RZ
   axis XYZ
   position 0 0 0  
   orientation 0 0 0 
:bonedata
  begin
     id 1 
     name lhipjoint
     direction 0.700308 -0.549349 0.455834 
     length 2.59063 
     axis 0 0 0  XYZ
  end
  begin
     id 2 
     name lfemur
     direction 0.34202 -0.939693 0  
     length 6.31066  
     axis 0 0 20  XYZ
    dof rx ry rz
    limits (-160.0 20.0)
           (-70.0 70.0)
           (-60.0 70.0)
  end
  begin
     id 3 
     name ltibia
     direction 0.34202 -0.939693 0   
     length 7.36093   
     axis 0 0 20   XYZ
    dof rx
    limits (-10.0 170.0)
  end
  begin
     id 4 
     name lfoot
     direction 0.0905332 -0.248738 0.96433   
     length 2.0233   
     axis -90 7.62852e-016 20   XYZ
    dof rx rz
    limits (-45.0 90.0)
           (-70.0 20.0)
  end
  begin
     id 5 
     name ltoes
     direction 1.53573e-011 -4.21855e-011 1   
     length 1.01524   
     axis -90 7.62852e-016 20   XYZ
    dof rx
    limits (-90.0 20.0)
  end
  begin
     id 6 
     name rhipjoint
     direction -0.61416 -0.607328 0.503944   
     length 2.34332  
     axis 0 0 0  XYZ 
  end
  begin
     id 7 
     name rfemur
     direction -0.34202 -0.939693 0   
     length 6.58548   
     axis 0 0 -20   XYZ
    dof rx ry rz
    limits (-160.0 20.0)
           (-70.0 70.0)
           (-70.0 60.0)
  end
  begin
     id 8 
     name rtibia
     direction -0.34202 -0.939693 0   
     length 7.20707   
     axis 0 0 -20   XYZ
    dof rx
    limits (-10.0 170.0)
 end
 begin
     id 9 
     name rfoot
     direction -0.136772 -0.375778 0.916561   
     length 1.92184  
     axis -90 -7.62852e-016 -20   XYZ
    dof rx rz
    limits (-45.0 90.0)
           (-20.0 70.0)
  end
  begin
     id 10 
     name rtoes
     direction -1.53535e-011 -4.21828e-011 1   
     length 0.951089   
     axis -90 -7.62852e-016 -20   XYZ
    dof rx
    limits (-90.0 20.0)
  end
  begin
     id 11 
     name lowerback
     direction -0.0444974 0.988086 -0.147332   
     length 1.9609   
     axis 0 0 0   XYZ
    dof rx ry rz
    limits (-20.0 45.0)
           (-30.0 30.0)
           (-30.0 30.0)
  end
  begin
     id 12 
     name upperback
     direction 0.00613146 0.999513 0.0306081   
     length 1.94944   
     axis 0 0 0   XYZ
    dof rx ry rz
    limits (-20.0 45.0)
           (-30.0 30.0)
           (-30.0 30.0)
  end
  begin
     id 13 
     name thorax
     direction 0.0254621 0.994518 0.101418   
     length 2.0119   
     axis 0 0 0   XYZ
    dof rx ry rz
    limits (-20.0 45.0)
           (-30.0 30.0)
           (-30.0 30.0)
  end
  begin
     id 14 
     name lowerneck
     direction 0.0168698 0.977854 0.208608   
     length 1.6375   
     axis 0 0 0   XYZ
    dof rx ry rz
    limits (-20.0 45.0)
           (-30.0 30.0)
           (-30.0 30.0)
  end
  begin
     id 15 
     name upperneck
     direction -0.0283988 0.989338 -0.142843   
     length 1.6851   
     axis 0 0 0   XYZ
    dof rx ry rz
    limits (-20.0 45.0)
           (-30.0 30.0)
           (-30.0 30.0)
  end
  begin
     id 16
     name head
     direction -0.0129422 0.99741 -0.0707489  
     length 1.69029  
     axis 0 0 0   XYZ
    dof rx ry rz
    limits (-20.0 45.0)
           (-30.0 30.0)
           (-30.0 30.0)
  end
  begin
     id 17 
     name lclavicle
     direction 0.820295 0.564628 -0.0911715  
     length 3.16484  
     axis 0 0 0   XYZ
    dof ry rz
    limits (-20.0 10.0)
           (0.0 20.0)
  end
  begin
     id 18 
     name lhumerus
     direction 1 -4.48969e-011 1.00186e-027   
     length 5.17853   
     axis 180 -30 -90   XYZ
    dof rx ry rz
    limits (-60.0 90.0)
           (-90.0 90.0)
           (-90.0 90.0)
  end
  begin
     id 19
     name lradius
     direction 1 -4.48966e-011 -1.52922e-027   
     length 3.40399   
     axis 180 -30 -90   XYZ
    dof rx
    limits (-10.0 170.0)
  end
  begin
     id 20
     name lwrist
     direction 1 -4.48981e-011 -3.80893e-027   
     length 1.70199   
     axis 1.1049e-015 90 90   XYZ
    dof ry
    limits (-180.0 0.0)
 end
  begin
     id 21 
     name lhand
     direction 1 -4.48957e-011 -7.61786e-027   
     length 0.708964   
     axis 4.86085e-015 90 90   XYZ
    dof rx rz
    limits (-90.0 90.0)
           (-45.0 45.0)
  end
  begin
     id 22 
     name lfingers
     direction 1 -4.48929e-011 -1.52357e-026   
     length 0.571585   
     axis 9.7217e-015 90 90   XYZ
    dof rx
    limits (0.0 90.0)
  end
  begin
     id 23
     name lthumb
     direction 0.707107 -6.34905e-011 0.707107   
     length 0.820685   
     axis -90 45 2.85299e-015   XYZ
    dof rx rz
    limits (-45.0 45.0)
           (-45.0 45.0)
  end
  begin
     id 24 
     name rclavicle
     direction -0.858602 0.463947 -0.218075   
     length 3.35137  
     axis 0 0 0   XYZ 
    dof ry rz
    limits (-10.0 20.0)
           (-20.0 0.0)
  end
  begin
     id 25 
     name rhumerus
     direction -1 -4.48969e-011 -1.98511e-027  
     length 5.42351   
     axis 180 30 90   XYZ
    dof rx ry rz
    limits (-90.0 60.0)
           (-90.0 90.0)
           (-90.0 90.0)
  end
  begin
     id 26 
     name rradius
     direction -1 -4.48961e-011 -2.82624e-027   
     length 3.42066   
     axis 180 30 90   XYZ
    dof rx
    limits (-10.0 170.0)
  end
  begin
     id 27 
     name rwrist
     direction -1 -4.48966e-011 -3.80893e-027   
     length 1.71033   
     axis 1.1049e-015 -90 -90   XYZ
    dof ry
    limits (-180.0 0.0)
  end
  begin
     id 28
     name rhand
     direction -1 -4.48964e-011 -7.61786e-027   
     length 0.743608   
     axis 4.86085e-015 -90 -90   XYZ
    dof rx rz
    limits (-90.0 90.0)
           (-45.0 45.0)
  end
  begin
     id 29
     name rfingers
     direction -1 -4.48961e-011 -1.52357e-026   
     length 0.599516   
     axis 9.7217e-015 -90 -90   XYZ
    dof rx
    limits (0.0 90.0)
  end
  begin
     id 30
     name rthumb
     direction -0.707107 -6.34913e-011 0.707107   
     length 0.860789   
     axis -90 -45 -2.85299e-015   XYZ
    dof rx rz
    limits (-45.0 45.0)
           (-45.0 45.0)
  end
:hierarchy
  begin
    root lhipjoint rhipjoint lowerback
    lhipjoint lfemur
    lfemur ltibia
    ltibia lfoot
    lfoot ltoes
    rhipjoint rfemur
    rfemur rtibia
    rtibia rfoot
    rfoot rtoes
    lowerback upperback
    upperback thorax
    thorax lowerneck lclavicle rclavicle
    lowerneck upperneck
    upperneck head
    lclavicle lhumerus
    lhumerus lradius
    lradius lwrist
    lwrist lhand lthumb
    lhand lfingers
    rclavicle rhumerus
    rhumerus rradius
    rradius rwrist
    rwrist rhand rthumb
    rhand rfingers
  end

#!OML:ASF E:\mmandel\Project 1\Capture day 1\Session 2\Subject.ASF
:FULLY-SPECIFIED
:DEGREES
657
root 7.38555 14.5992 -1.99241 17.865 83.1116 -1.50477
lowerback 17.5082 2.21982 -5.25892
upperback 1.89665 2.00456 -0.118895
thorax -7.94867 1.17473 2.36898
lowerneck -16.2814 2.20314 4.14699
upperneck 3.7843 2.69058 -6.16625
head 3.88467 1.08245 -2.36001
rclavicle -7.35503e-015 -7.95139e-016
rhumerus -24.8392 7.52557 -82.6393
rradius 84.5747
rwrist -18.4267
rhand -18.093 36.0756
rfingers 7.12502
rthumb 8.18055 6.254
lclavicle -7.35503e-015 -7.95139e-016
lhumerus -25.1379 -11.5584 74.4314
lradius 71.1113
lwrist 22.0869
lhand -17.1196 -31.99
lfingers 7.12502
lthumb 9.11993 -2.20719
rfemur -58.4474 -8.17732 12.0404
rtibia 66.5141
rfoot -27.8999 -3.96157
rtoes -16.8273
lfemur -55.633 22.7738 -17.9277
ltibia 66.2915
lfoot -25.1705 -3.83845
ltoes 3.33
658
root 7.38276 14.599 -1.99861 17.4225 83.2261 -1.97134
lowerback 17.4843 2.23472 -5.30637
upperback 1.87738 2.01786 -0.0868241
thorax -7.96049 1.18348 2.4275
lowerneck -16.0996 2.15559 4.20262
upperneck 3.71522 2.62816 -6.28126
head 3.83472 1.04963 -2.41063
rclavicle -2.83268e-015 -1.59028e-015
rhumerus -24.8364 7.69602 -82.6165
rradius 84.8963
rwrist -18.4551
rhand -18.2054 36.1116
rfingers 7.12502
rthumb 8.07213 6.28577
lclavicle -2.83268e-015 -1.59028e-015
lhumerus -25.2755 -11.4406 74.62
lradius 72.0381
lwrist 21.8418
lhand -17.0802 -32.0366
lfingers 7.12502
lthumb 9.158 -2.25542
rfemur -58.4353 -8.19211 12.0823
rtibia 66.463
rfoot -27.8362 -4.07731
rtoes -16.8455
lfemur -55.726 22.7414 -17.9082
ltibia 66.2824
lfoot -25.1054 -3.90347
ltoes 3.58005
659
root 7.38237 14.5993 -2.00645 17.0225 83.2817 -2.39011
lowerback 17.4533 2.24949 -5.28476
upperback 1.89246 2.04273 -0.104772
thorax -7.92769 1.19367 2.39082
lowerneck -16.1362 2.16662 4.25604
upperneck 3.68784 2.64299 -6.41598
head 3.83607 1.05074 -2.45981
rclavicle 2.12203e-014 -1.27222e-014
rhumerus -24.7147 7.75627 -82.64
rradius 85.2167
rwrist -18.4922
rhand -18.1369 36.0584
rfingers 7.12502
rthumb 8.13823 6.23508
lclavicle 2.12203e-014 -1.27222e-014
lhumerus -25.2361 -11.3329 74.7207
lradius 72.8323
lwrist 21.7059
lhand -16.8814 -32.1636
lfingers 7.12502
lthumb 9.3498 -2.39098
rfemur -58.4024 -8.18634 12.1003
rtibia 66.4086
rfoot -27.7816 -4.18536
rtoes -16.9361
lfemur -55.7753 22.7139 -17.8971
ltibia 66.2862
lfoot -25.1155 -3.92815
ltoes 3.57678
660
root 7.38362 14.6017 -2.0151 17.2052 83.3145 -2.21477
lowerback 17.5167 2.29744 -5.31199
upperback 1.84936 2.09035 -0.154109
thorax -8.01266 1.21866 2.3387
lowerneck -16.3471 2.12602 4.35185
upperneck 3.85066 2.58298 -6.56346
head 3.91979 1.00922 -2.52551
rclavicle 7.7526e-015 -9.93923e-016
rhumerus -24.5752 7.67795 -82.7068
rradius 85.424
rwrist -18.4627
rhand -17.9677 35.8919
rfingers 7.12502
rthumb 8.30147 6.07505
lclavicle 7.7526e-015 -9.93923e-016
lhumerus -25.2337 -11.302 74.8488
lradius 73.5792
lwrist 21.5658
lhand -16.712 -32.302
lfingers 7.12502
lthumb 9.51326 -2.53673
rfemur -58.3475 -8.26197 12.0564
rtibia 66.3504
rfoot -27.8108 -4.15752
rtoes -17.0428
lfemur -55.7803 22.6335 -17.9537
ltibia 66.2917
lfoot -25.1513 -3.8829
ltoes 3.45878
661
root 7.38223 14.6023 -2.02292 16.8916 83.4475 -2.52785
lowerback 17.6736 2.33855 -5.26828
upperback 1.76413 2.13655 -0.178281
thorax -8.1936 1.24315 2.27033
lowerneck -16.3083 2.11011 4.36188
upperneck 3.96558 2.55954 -6.5183
head 3.94708 0.998741 -2.51521
rclavicle 1.799e-014 7.15625e-015
rhumerus -24.5981 7.54448 -82.7544
rradius 85.679
rwrist -18.4171
rhand -17.8365 35.8239
rfingers 7.12502
rthumb 8.42814 6.01202
lclavicle 1.799e-014 7.15625e-015
lhumerus -25.3124 -11.3195 75.0186
lradius 74.3848
lwrist 21.4747
lhand -16.5715 -32.4648
lfingers 7.12502
lthumb 9.64877 -2.70577
rfemur -58.3025 -8.41746 12.1139
rtibia 66.2895
rfoot -27.8221 -4.17268
rtoes -17.4225
lfemur -55.8313 22.5044 -17.9322
ltibia 66.3107
lfoot -25.1771 -3.74188
ltoes 2.61014
662
root 7.37808 14.6027 -2.03199 16.0764 83.6385 -3.35199
lowerback 17.7341 2.31367 -5.13604
upperback 1.74764 2.12579 -0.171477
thorax -8.23951 1.23466 2.2035
lowerneck -16.0916 2.03628 4.09836
upperneck 3.87247 2.48192 -6.13884
head 3.87033 0.98097 -2.36148
rclavicle -8.94531e-015 1.23246e-014
rhumerus -24.4977 7.59218 -82.7513
rradius 85.8578
rwrist -18.3952
rhand -17.8157 35.8967
rfingers 7.12502
rthumb 8.44817 6.08563
lclavicle -8.94531e-015 1.23246e-014
lhumerus -25.289 -11.249 75.1532
lradius 75.1006
lwrist 21.3971
lhand -16.4365 -32.7796
lfingers 7.12502
lthumb 9.77907 -3.02663
rfemur -58.2384 -8.56483 12.2301
rtibia 66.2207
rfoot -27.8014 -4.28144
rtoes -17.7882
lfemur -55.9378 22.3924 -17.8689
ltibia 66.3386
lfoot -25.1731 -3.67469
ltoes 1.75803
663
root 7.37615 14.6074 -2.04148 16.0319 83.7079 -3.37466
lowerback 17.6814 2.30464 -5.12018
upperback 1.8192 2.12226 -0.200006
thorax -8.13024 1.22965 2.1674
lowerneck -15.8734 1.86928 3.71756
upperneck 3.71878 2.29125 -5.63819
head 3.76665 0.912469 -2.16053
rclavicle -1.00386e-014 -6.75868e-015
rhumerus -24.2263 7.67721 -82.767
rradius 85.9246
rwrist -18.3765
rhand -17.8648 36.0704
rfingers 7.12502
rthumb 8.40084 6.25748
lclavicle -1.00386e-014 -6.75868e-015
lhumerus -25.0468 -11.1902 75.2442
lradius 75.634
lwrist 21.3125
lhand -16.4819 -32.9894
lfingers 7.12502
lthumb 9.73523 -3.23442
rfemur -58.1362 -8.60742 12.2033
rtibia 66.1518
rfoot -27.7524 -4.40812
rtoes -18.0117
lfemur -55.9604 22.4891 -17.9687
ltibia 66.3332
lfoot -25.1474 -3.9214
ltoes 2.31028
664
root 7.37566 14.6101 -2.05028 16.0403 83.6965 -3.36774
lowerback 17.6235 2.35397 -5.12502
upperback 1.87364 2.18751 -0.266238
thorax -8.04154 1.25815 2.08505
lowerneck -15.9753 2.01118 3.8553
upperneck 3.6001 2.46804 -5.85401
head 3.75977 0.991691 -2.23522
rclavicle -2.28602e-014 -7.25564e-015
rhumerus -24.0468 7.6187 -82.835
rradius 86.1153
rwrist -18.3752
rhand -17.9106 36.1063
rfingers 7.12502
rthumb 8.35658 6.29165
lclavicle -2.28602e-014 -7.25564e-015
lhumerus -24.7605 -11.2274 75.342
lradius 76.1731
lwrist 21.3541
lhand -16.3447 -33.024
lfingers 7.12502
lthumb 9.86757 -3.27526
rfemur -58.1032 -8.59389 12.1499
rtibia 66.1038
rfoot -27.7101 -4.40615
rtoes -17.9359
lfemur -56.009 22.7166 -18.1105
ltibia 66.3234
lfoot -25.0916 -4.27937
ltoes 3.28645
665
root 7.37429 14.6083 -2.05859 15.8926 83.7827 -3.51244
lowerback 17.7 2.38131 -5.08258
upperback 1.84484 2.22262 -0.303885
thorax -8.11465 1.27454 2.00873
lowerneck -15.9332 1.97766 3.85834
upperneck 3.59705 2.42278 -5.84585
head 3.74994 0.970335 -2.23695
rclavicle 8.84592e-015 6.95746e-015
rhumerus -24.0134 7.59619 -82.8832
rradius 86.3512
rwrist -18.3833
rhand -17.7803 35.9812
rfingers 7.12502
rthumb 8.48239 6.17152
lclavicle 8.84592e-015 6.95746e-015
lhumerus -24.6885 -11.2498 75.5089
lradius 76.7972
lwrist 21.374
lhand -16.0115 -33.0209
lfingers 7.12502
lthumb 10.1891 -3.28765
rfemur -58.0687 -8.66943 12.1293
rtibia 66.0889
rfoot -27.7173 -4.33637
rtoes -17.7515
lfemur -56.0706 22.7118 -18.1478
ltibia 66.3339
lfoot -25.0757 -4.39134
ltoes 3.52326
